<svg xmlns="http://www.w3.org/2000/svg" width="45" height="45" viewBox="0 0 45 45">
  <g id="Group_62" data-name="Group 62" transform="translate(-1142 -6608)">
    <path id="Path_24" data-name="Path 24" d="M1167.87,559.942a.78.78,0,1,0-.78-.78A.78.78,0,0,0,1167.87,559.942Z" transform="translate(0 6068)" fill="#fff"/>
    <path id="Path_25" data-name="Path 25" d="M1161.25,562.5a3.25,3.25,0,1,0,3.25-3.25A3.255,3.255,0,0,0,1161.25,562.5Zm1.63,0a1.62,1.62,0,1,1,1.62,1.625A1.62,1.62,0,0,1,1162.88,562.5Z" transform="translate(0 6068)" fill="#fff" fill-rule="evenodd"/>
    <path id="Path_26" data-name="Path 26" d="M1161.25,569h6.5a3.424,3.424,0,0,0,3.25-3.25v-6.5a3.424,3.424,0,0,0-3.25-3.25h-6.5a3.424,3.424,0,0,0-3.25,3.25v6.5A3.424,3.424,0,0,0,1161.25,569Zm-1.63-9.75a1.844,1.844,0,0,1,1.63-1.625h6.5a1.844,1.844,0,0,1,1.63,1.625v6.5a1.844,1.844,0,0,1-1.63,1.625h-6.5a1.822,1.822,0,0,1-1.63-1.625Z" transform="translate(0 6068)" fill="#fff" fill-rule="evenodd"/>
    <path id="Path_23" data-name="Path 23" d="M1186,562.5a21.5,21.5,0,1,1-21.5-21.5A21.5,21.5,0,0,1,1186,562.5Z" transform="translate(0 6068)" fill="none" stroke="#fff" stroke-width="2" opacity="0.25"/>
  </g>
</svg>
