<svg xmlns="http://www.w3.org/2000/svg" width="45" height="45" viewBox="0 0 45 45">
  <g id="Group_61" data-name="Group 61" transform="translate(-1212 -6608)">
    <path id="Path_22" data-name="Path 22" d="M1241.27,557.343a1.976,1.976,0,0,1,1.4,1.386,18.791,18.791,0,0,1,.33,3.793,20.336,20.336,0,0,1-.33,3.778,2,2,0,0,1-1.42,1.384,49.732,49.732,0,0,1-6.26.316,47.952,47.952,0,0,1-6.26-.343,2.007,2.007,0,0,1-1.41-1.386,20.889,20.889,0,0,1-.32-3.779,20.345,20.345,0,0,1,.33-3.779,2.032,2.032,0,0,1,1.42-1.4,49.574,49.574,0,0,1,6.26-.317A47.872,47.872,0,0,1,1241.27,557.343Zm-7.86,2.8-.01,4.71,4.17-2.351Z" transform="translate(0 6068)" fill="#fff" fill-rule="evenodd"/>
    <path id="Path_21" data-name="Path 21" d="M1256,562.5a21.5,21.5,0,1,1-21.5-21.5A21.5,21.5,0,0,1,1256,562.5Z" transform="translate(0 6068)" fill="none" stroke="#fff" stroke-width="2" opacity="0.25"/>
  </g>
</svg>
