<svg xmlns="http://www.w3.org/2000/svg" width="45" height="45" viewBox="0 0 45 45">
  <g id="Group_63" data-name="Group 63" transform="translate(-1072 -6608)">
    <path id="Path_20" data-name="Path 20" d="M1092.7,569.393l-.02-6.3H1090v-2.7h2.68v-1.8a3.3,3.3,0,0,1,3.64-3.6,19.457,19.457,0,0,1,2.17.112v2.537H1097c-1.17,0-1.39.56-1.39,1.381V560.4h3.32l-.89,2.7h-2.43v6.3Z" transform="translate(0 6068)" fill="#fff"/>
    <path id="Path_19" data-name="Path 19" d="M1116,562.5a21.5,21.5,0,1,1-21.5-21.5A21.5,21.5,0,0,1,1116,562.5Z" transform="translate(0 6068)" fill="none" stroke="#fff" stroke-width="2" opacity="0.25"/>
  </g>
</svg>
