<svg xmlns="http://www.w3.org/2000/svg" width="45.01" height="45" viewBox="0 0 45.01 45">
  <g id="Group_60" data-name="Group 60" transform="translate(-1001.995 -6608)">
    <path id="Path_29" data-name="Path 29" d="M1021.09,560.5h-2.81a.284.284,0,0,0-.28.281v8.438a.284.284,0,0,0,.28.281h2.81a.286.286,0,0,0,.29-.281v-8.438A.286.286,0,0,0,1021.09,560.5Z" transform="translate(0 6068)" fill="#fff"/>
    <path id="Path_30" data-name="Path 30" d="M1029.47,560.112a4.258,4.258,0,0,0-3.6.6.291.291,0,0,0-.28-.211h-2.81a.284.284,0,0,0-.28.281v8.438a.284.284,0,0,0,.28.281h2.81a.286.286,0,0,0,.29-.281v-6.064a1.46,1.46,0,0,1,1.51-.313,1.316,1.316,0,0,1,.73,1.314v5.063a.286.286,0,0,0,.29.281h2.81a.284.284,0,0,0,.28-.281V563.59C1031.47,561.279,1030.38,560.423,1029.47,560.112Z" transform="translate(0 6068)" fill="#fff"/>
    <path id="Path_28" data-name="Path 28" d="M1019.69,559.375a1.688,1.688,0,1,0-1.69-1.687A1.691,1.691,0,0,0,1019.69,559.375Z" transform="translate(0 6068)" fill="#fff"/>
    <path id="Path_27" data-name="Path 27" d="M1045.88,562.5a21.38,21.38,0,1,1-21.38-21.375A21.376,21.376,0,0,1,1045.88,562.5Z" transform="translate(0 6068)" fill="none" stroke="#fff" stroke-width="2.25" opacity="0.25"/>
  </g>
</svg>
