<svg xmlns="http://www.w3.org/2000/svg" width="62.734" height="71.461" viewBox="0 0 62.734 71.461">
  <g id="Group_1" data-name="Group 1" transform="translate(-223.469 -394.851)" style="mix-blend-mode: normal;isolation: isolate">
    <path id="Path_1" data-name="Path 1" d="M321.292,407.081h0Z" transform="translate(-53.569 -6.697)" fill="#fff"/>
    <path id="Path_2" data-name="Path 2" d="M267.723,400.384l-9.2,13.779,8.844,4.826a3.233,3.233,0,0,1,1.684,2.781l.279,15.917a3.234,3.234,0,0,1-1.481,2.774l-12.188,7.854a3.233,3.233,0,0,1-3.53-.018l-10.739-7.078a3.232,3.232,0,0,1-1.454-2.7v-17.2a3.232,3.232,0,0,1,1.392-2.657l9.431-8.846a7.413,7.413,0,0,1,3.032-2.151l13.933-7.28-7.426-4.108a11.4,11.4,0,0,0-12.3.811l-19.907,14.728a11.4,11.4,0,0,0-4.62,9.166V441.9a11.4,11.4,0,0,0,5,9.434l19.154,13.005a11.4,11.4,0,0,0,12.118.434l20.776-12.028a11.4,11.4,0,0,0,5.689-9.868V417.33a11.4,11.4,0,0,0-5.883-9.977Z" fill="#fff"/>
    <path id="Path_3" data-name="Path 3" d="M282.811,454.966l7.377-4.959a1.157,1.157,0,0,0-.074-1.967l-7.5-4.258a2.175,2.175,0,0,0-2.227.048l-7.662,4.8a.988.988,0,0,0,.01,1.681l7.733,4.712A2.174,2.174,0,0,0,282.811,454.966Z" transform="translate(-26.719 -26.64)" fill="#fff"/>
  </g>
</svg>
