<svg xmlns="http://www.w3.org/2000/svg" width="44.217" height="50.368" viewBox="0 0 44.217 50.368">
  <g id="Group_7" data-name="Group 7" transform="translate(-223.469 -394.851)" style="mix-blend-mode: color-dodge;isolation: isolate">
    <path id="Path_1" data-name="Path 1" d="M321.292,407.081h0Z" transform="translate(-66.631 -8.33)" fill="#fff"/>
    <path id="Path_2" data-name="Path 2" d="M254.661,398.751l-6.488,9.712,6.234,3.4a2.279,2.279,0,0,1,1.187,1.96l.2,11.219A2.279,2.279,0,0,1,254.746,427l-8.591,5.536a2.279,2.279,0,0,1-2.488-.013l-7.569-4.989a2.278,2.278,0,0,1-1.025-1.9V413.506a2.278,2.278,0,0,1,.981-1.873L242.7,405.4a5.225,5.225,0,0,1,2.137-1.516l9.821-5.131-5.234-2.9a8.036,8.036,0,0,0-8.67.572l-14.031,10.381a8.037,8.037,0,0,0-3.257,6.461v14.747a8.037,8.037,0,0,0,3.522,6.649l13.5,9.166a8.036,8.036,0,0,0,8.541.306l14.644-8.478a8.037,8.037,0,0,0,4.01-6.955v-18.01a8.037,8.037,0,0,0-4.146-7.032Z" fill="#fff"/>
    <path id="Path_3" data-name="Path 3" d="M279.7,451.581l5.2-3.5a.816.816,0,0,0-.052-1.386l-5.287-3a1.533,1.533,0,0,0-1.57.034l-5.4,3.38a.7.7,0,0,0,.007,1.185l5.45,3.322A1.532,1.532,0,0,0,279.7,451.581Z" transform="translate(-33.234 -33.136)" fill="#fff"/>
  </g>
</svg>
