<svg xmlns="http://www.w3.org/2000/svg" width="16" height="11" viewBox="0 0 16 11">
  <path id="Path_22" data-name="Path 22" d="M1241.27,557.343a1.976,1.976,0,0,1,1.4,1.386,18.791,18.791,0,0,1,.33,3.793,20.336,20.336,0,0,1-.33,3.778,2,2,0,0,1-1.42,1.384,49.732,49.732,0,0,1-6.26.316,47.952,47.952,0,0,1-6.26-.343,2.007,2.007,0,0,1-1.41-1.386,20.889,20.889,0,0,1-.32-3.779,20.345,20.345,0,0,1,.33-3.779,2.032,2.032,0,0,1,1.42-1.4,49.574,49.574,0,0,1,6.26-.317A47.872,47.872,0,0,1,1241.27,557.343Zm-7.86,2.8-.01,4.71,4.17-2.351Z" transform="translate(-1227 -557)" fill="#fff" fill-rule="evenodd"/>
</svg>
